<svg width="24" height="24" viewBox="0 0 24 24" fill="none" xmlns="http://www.w3.org/2000/svg">
<path fill-rule="evenodd" clip-rule="evenodd" d="M6.5 0C5.67157 0 5 0.671573 5 1.5V4H2.66667C1.19391 4 0 5.19391 0 6.66667V21.3333C0 22.8061 1.19391 24 2.66667 24H21.3333C22.8061 24 24 22.8061 24 21.3333V6.66667C24 5.19391 22.8061 4 21.3333 4H19V1.5C19 0.671573 18.3284 0 17.5 0C16.6716 0 16 0.671573 16 1.5V4H8V1.5C8 0.671573 7.32843 0 6.5 0ZM21 7H3V21H21V7Z" fill="#D75755"/>
<circle cx="7" cy="10" r="1" fill="#D75755"/>
<circle cx="7" cy="14" r="1" fill="#D75755"/>
<circle cx="7" cy="18" r="1" fill="#D75755"/>
<circle cx="12" cy="10" r="1" fill="#D75755"/>
<circle cx="12" cy="14" r="1" fill="#D75755"/>
<circle cx="12" cy="18" r="1" fill="#D75755"/>
<circle cx="17" cy="10" r="1" fill="#D75755"/>
<circle cx="17" cy="14" r="1" fill="#D75755"/>
</svg>
