<svg width="16" height="16" viewBox="0 0 16 16" fill="none" xmlns="http://www.w3.org/2000/svg">
<path fill-rule="evenodd" clip-rule="evenodd" d="M7.40995 2.33264L1.09261 13.0021C0.829457 13.4465 1.15855 14.0028 1.68377 14.0028H14.3162C14.8415 14.0028 15.1705 13.4465 14.9074 13.0021L8.59005 2.33264C8.32745 1.88912 7.67255 1.88912 7.40995 2.33264ZM8 6C7.62345 6 7.31819 6.29848 7.31819 6.66667V9.33333C7.31819 9.70152 7.62345 10 8 10C8.37655 10 8.68181 9.70152 8.68181 9.33333V6.66667C8.68181 6.29848 8.37655 6 8 6ZM8 10.6667C7.62345 10.6667 7.31819 10.9651 7.31819 11.3333C7.31819 11.7015 7.62345 12 8 12C8.37655 12 8.68181 11.7015 8.68181 11.3333C8.68181 10.9651 8.37655 10.6667 8 10.6667Z" fill="#D75755"/>
</svg>
