<svg width="24" height="24" viewBox="0 0 24 24" fill="none" xmlns="http://www.w3.org/2000/svg">
<path fill-rule="evenodd" clip-rule="evenodd" d="M12.0703 13.509L21.6511 3.89012C22.1163 3.42261 22.1163 2.66463 21.6511 2.19713L20.8088 1.35063C20.3437 0.883123 19.5895 0.883123 19.1243 1.35063L9.54343 10.9695L12.0703 13.509ZM11.4452 14.0771L8.91833 11.5376L8.03159 14.2111C7.87639 14.6791 8.31935 15.1242 8.78495 14.9682L11.4452 14.0771ZM17 20V11.6818L20 8.68179V20.3333C20 21.8061 18.8061 23 17.3333 23H4.66667C3.19391 23 2 21.8061 2 20.3333V3.66667C2 2.19391 3.19391 1 4.66667 1H16.652L13.652 4H5V20H17Z" fill="#D75755"/>
</svg>
