<svg width="61" height="61" viewBox="0 0 61 61" fill="none" xmlns="http://www.w3.org/2000/svg">
<path d="M44.0315 46.9309C40.7435 49.7058 36.6985 51.4303 32.4198 51.8815C28.1411 52.3327 23.8254 51.4898 20.0309 49.4618C16.2364 47.4339 13.1376 44.3141 11.1353 40.506C9.13302 36.6979 8.31929 32.3766 8.79936 28.101C9.27944 23.8255 11.0313 19.7923 13.8282 16.5231C16.6252 13.2538 20.3387 10.899 24.4885 9.763C28.6382 8.62704 33.0334 8.76223 37.1055 10.1511C41.1776 11.54 44.7393 14.1186 47.3301 17.5535L30.1651 30.5001L44.0315 46.9309Z" fill="#F6C042"/>
<path d="M44.0315 46.9309C40.7435 49.7058 36.6985 51.4303 32.4198 51.8815C28.1411 52.3327 23.8254 51.4898 20.0309 49.4618C16.2364 47.4339 13.1376 44.3141 11.1353 40.506C9.13302 36.6979 8.31929 32.3766 8.79936 28.101C9.27944 23.8255 11.0313 19.7923 13.8282 16.5231C16.6252 13.2538 20.3387 10.899 24.4885 9.763C28.6382 8.62704 33.0334 8.76223 37.1055 10.1511C41.1776 11.54 44.7393 14.1186 47.3301 17.5535L30.1651 30.5001L44.0315 46.9309Z" fill="url(#paint0_radial_2203_4214)"/>
<circle cx="29.6628" cy="20" r="3" fill="#333333"/>
<circle opacity="0.5" cx="13.5" cy="32.5" r="1.5" fill="white"/>
<path opacity="0.5" d="M18.6603 17C16.9729 18.744 13.5285 23.3115 13.25 27.6292" stroke="white" stroke-width="3" stroke-linecap="round"/>
<circle cx="30" cy="20" r="3" fill="#333333"/>
<defs>
<radialGradient id="paint0_radial_2203_4214" cx="0" cy="0" r="1" gradientUnits="userSpaceOnUse" gradientTransform="translate(18.5 23) rotate(108.853) scale(21.6622)">
<stop stop-color="white" stop-opacity="0.47"/>
<stop offset="0.65888" stop-color="white" stop-opacity="0"/>
</radialGradient>
</defs>
</svg>
