<svg width="24" height="24" viewBox="0 0 24 24" fill="none" xmlns="http://www.w3.org/2000/svg">
<path fill-rule="evenodd" clip-rule="evenodd" d="M18.1421 2.58579C18.9232 1.80474 20.1895 1.80474 20.9706 2.58579C21.7516 3.36683 21.7516 4.63316 20.9706 5.41421L14.6066 11.7782L20.9706 18.1421C21.7516 18.9232 21.7516 20.1895 20.9706 20.9706C20.1895 21.7516 18.9232 21.7516 18.1421 20.9706L11.7782 14.6066L5.41421 20.9706C4.63316 21.7516 3.36683 21.7516 2.58579 20.9706C1.80474 20.1895 1.80474 18.9232 2.58579 18.1421L8.94975 11.7782L2.5858 5.41421C1.80475 4.63316 1.80475 3.36683 2.5858 2.58579C3.36685 1.80474 4.63318 1.80474 5.41423 2.58579L11.7782 8.94974L18.1421 2.58579Z" fill="#D75755"/>
</svg>
