<svg width="24" height="24" viewBox="0 0 24 24" fill="none" xmlns="http://www.w3.org/2000/svg">
<path fill-rule="evenodd" clip-rule="evenodd" d="M20.5 4L18.0022 4C18.0015 4 18.0007 4 18 4L15 4V3C15 1.89543 14.1046 1 13 1H11C9.89543 1 9 1.89543 9 3L9 4L6 4C5.99969 4 5.99937 4 5.99906 4L3.5 4C2.67157 4 2 4.67157 2 5.5C2 6.32843 2.67157 7 3.5 7H4V21C4 22.1046 4.89543 23 6 23H18C19.1046 23 20 22.1046 20 21V7H20.5C21.3284 7 22 6.32843 22 5.5C22 4.67157 21.3284 4 20.5 4ZM17 7L13.0016 7L13 7L11 7L7 7V20H17V7Z" fill="#D75755"/>
</svg>
