<svg width="20" height="20" viewBox="0 0 20 20" fill="none" xmlns="http://www.w3.org/2000/svg">
<g clip-path="url(#clip0_2379_1743)">
<circle cx="10" cy="10" r="10" fill="#F2F2F2"/>
<path fill-rule="evenodd" clip-rule="evenodd" d="M6.74583 5.29956C6.34645 4.90015 5.69892 4.90015 5.29954 5.29956C4.90015 5.69898 4.90015 6.34656 5.29954 6.74597L8.5537 10.0004L5.29955 13.2548C4.90016 13.6542 4.90016 14.3018 5.29955 14.7012C5.69893 15.1006 6.34646 15.1006 6.74584 14.7012L10 11.4468L13.2542 14.7012C13.6535 15.1006 14.3011 15.1006 14.7005 14.7012C15.0998 14.3018 15.0998 13.6542 14.7005 13.2548L11.4463 10.0004L14.7005 6.74597C15.0998 6.34656 15.0998 5.69898 14.7005 5.29956C14.3011 4.90015 13.6535 4.90015 13.2542 5.29956L10 8.55399L6.74583 5.29956Z" fill="#333333"/>
</g>
<defs>
<clipPath id="clip0_2379_1743">
<rect width="20" height="20" fill="white"/>
</clipPath>
</defs>
</svg>
