<svg width="24" height="24" viewBox="0 0 24 24" fill="none" xmlns="http://www.w3.org/2000/svg">
<path d="M12 22.5C6.21177 22.5 1.5 17.7882 1.5 12C1.5 6.21177 6.21177 1.5 12 1.5C17.7882 1.5 22.5 6.21177 22.5 12C22.5 17.7882 17.7882 22.5 12 22.5Z" stroke="#D75755" stroke-width="3"/>
<path d="M11.5 6.99723C11.0139 6.99723 10.5486 7.0554 10.1042 7.17175C9.90948 7.21705 9.71081 7.27599 9.50813 7.34857C9.06757 7.50635 8.56052 7.31897 8.38943 6.88341C8.16767 6.31882 8.40421 5.66927 8.97833 5.4735C9.22376 5.38982 9.48098 5.31601 9.75 5.25208C10.4167 5.08403 11.0972 5 11.7917 5C12.625 5 13.3125 5.10988 13.8542 5.32964C14.3958 5.53647 14.8264 5.80148 15.1458 6.12465C15.4653 6.44783 15.6875 6.80332 15.8125 7.19114C15.9375 7.57895 16 7.95383 16 8.31579C16 8.75531 15.9097 9.14959 15.7292 9.49862C15.5625 9.84765 15.3472 10.1708 15.0833 10.4681C14.8194 10.7655 14.5347 11.0499 14.2292 11.3213C13.9236 11.5799 13.6389 11.8513 13.375 12.1357C13.1111 12.4072 12.8889 12.6981 12.7083 13.0083C12.5417 13.3186 12.4583 13.6676 12.4583 14.0554C12.4583 14.12 12.4583 14.1976 12.4583 14.2881C12.4583 15.3989 10.25 15.4586 10.25 14.1136C10.2361 13.9584 10.2292 13.8163 10.2292 13.687C10.2292 13.2604 10.3056 12.879 10.4583 12.5429C10.6111 12.2068 10.8056 11.8966 11.0417 11.6122C11.2778 11.3278 11.5278 11.0628 11.7917 10.8172C12.0694 10.5716 12.3264 10.3259 12.5625 10.0803C12.7986 9.83472 12.9931 9.58264 13.1458 9.3241C13.2986 9.06556 13.375 8.78116 13.375 8.47091C13.375 8.04432 13.2153 7.69529 12.8958 7.42382C12.5903 7.13943 12.125 6.99723 11.5 6.99723ZM13.125 17.4681C13.125 17.9206 12.9653 18.289 12.6458 18.5734C12.3264 18.8578 11.9306 19 11.4583 19C11 19 10.6042 18.8578 10.2708 18.5734C9.95139 18.289 9.79167 17.9206 9.79167 17.4681C9.79167 17.0157 9.95139 16.6473 10.2708 16.3629C10.6042 16.0656 11 15.9169 11.4583 15.9169C11.9306 15.9169 12.3264 16.0656 12.6458 16.3629C12.9653 16.6473 13.125 17.0157 13.125 17.4681Z" fill="#D75755"/>
</svg>
