<svg width="24" height="24" viewBox="0 0 24 24" fill="none" xmlns="http://www.w3.org/2000/svg">
<path fill-rule="evenodd" clip-rule="evenodd" d="M23 3C23 1.89543 22.1046 1 21 1C19.8954 1 19 1.89543 19 3V21C19 22.1046 19.8954 23 21 23C22.1046 23 23 22.1046 23 21V3ZM15 5C16.1046 5 17 5.89543 17 7L17 21C17 22.1046 16.1046 23 15 23C13.8954 23 13 22.1046 13 21L13 7C13 5.89543 13.8954 5 15 5ZM11 11C11 9.89543 10.1046 9 9 9C7.89543 9 7 9.89543 7 11L7 21C7 22.1046 7.89543 23 9 23C10.1046 23 11 22.1046 11 21L11 11ZM5 15C5 13.8954 4.10457 13 3 13C1.89543 13 1 13.8954 1 15V21C1 22.1046 1.89543 23 3 23C4.10457 23 5 22.1046 5 21L5 15Z" fill="#D75755"/>
</svg>
